PathFileType	4	(x/y/z)	S05_M20_T11
DataRate	CameraRate	NumFrames	NumMarkers	Units	OrigDataRate	OrigDataStartFrame	OrigNumFrames
240	240	9	50	mm	240	1	510
Frame#	Time	Sternum			R.Acromium			L.Acromium			Top.Head			R.ASIS			L.ASIS			R.PSIS			L.PSIS			R.Great.Tro			L.Great.Tro			R.Iliac.Crest			L.Iliac.Crest			V.Sacral			R.Thigh.Upper.Post			R.Thigh.Lower.Ant			R.Thigh.Lower.Post			R.Thigh.Upper.Ant			R.Knee.Lat			R.Knee.Med			R.Shank.Upper.Post			R.Shank.Lower.Ant			R.Shank.Lower.Post			R.Shank.Upper.Ant			R.Ankle.Lat			R.Ankle.Med			R.Heel.Upper			R.Heel.Med			R.Heel.Lat			R.Toe.Lat			R.Toe.Med			R.Toe.Tip			L.Thigh.Upper.Post			L.Thigh.Lower.Ant			L.Thigh.Lower.Post			L.Thigh.Upper.Ant			L.Knee.Lat			L.Shank.Upper.Post			L.Shank.Lower.Ant			L.Shank.Lower.Post			L.Shank.Upper.Ant			L.Ankle.Lat			L.Ankle.Med			L.Heel.Upper			L.Heel.Med			L.Heel.Lat			L.Toe.Lat			L.Toe.Med			L.Toe.Tip			Cervical.Spine			Back			
		X1	Y1	Z1	X2	Y2	Z2	X3	Y3	Z3	X4	Y4	Z4	X5	Y5	Z5	X6	Y6	Z6	X7	Y7	Z7	X8	Y8	Z8	X9	Y9	Z9	X10	Y10	Z10	X11	Y11	Z11	X12	Y12	Z12	X13	Y13	Z13	X14	Y14	Z14	X15	Y15	Z15	X16	Y16	Z16	X17	Y17	Z17	X18	Y18	Z18	X19	Y19	Z19	X20	Y20	Z20	X21	Y21	Z21	X22	Y22	Z22	X23	Y23	Z23	X24	Y24	Z24	X25	Y25	Z25	X26	Y26	Z26	X27	Y27	Z27	X28	Y28	Z28	X29	Y29	Z29	X30	Y30	Z30	X31	Y31	Z31	X32	Y32	Z32	X33	Y33	Z33	X34	Y34	Z34	X35	Y35	Z35	X36	Y36	Z36	X37	Y37	Z37	X38	Y38	Z38	X39	Y39	Z39	X40	Y40	Z40	X41	Y41	Z41	X42	Y42	Z42	X43	Y43	Z43	X44	Y44	Z44	X45	Y45	Z45	X46	Y46	Z46	X47	Y47	Z47	X48	Y48	Z48	X49	Y49	Z49	X50	Y50	Z50	

1	0	-895.48	1215	341.27	-985.95	1476.5	494.73	-982.37	1493.3	163.51	-985.71	1780.6	322.37	-988.21	967.87	478.73	-935.72	967.22	232.01	-1166.6	997.81	349.86	-1148	988.83	260.77	-1099.2	905.52	518.67	-996.85	890.78	136.87	-1076.1	1060.1	496.76	-1022.1	1042.6	164.12	-1174.6	963.33	318.26	-1114.7	675.56	509.02	-1082	587.5	464.1	-1152	596.58	481.78	-1046.8	666.9	494.49	-1197.8	511.54	459.57	-1174.4	495.74	325.45	-1371.2	324.81	425.81	-1343.1	239.04	426.35	-1406	259.37	404.6	-1314.5	307.1	446.62	-1410.1	154.23	399.7	-1365.5	174.73	315.32	-1482.1	121.94	333.37	-1475.7	87.551	305.39	-1482.4	91.798	369.41	-1330.2	36.934	434.86	-1284.5	41.684	316.43	-1226.1	45.675	366.73	-899.34	666.87	146.47	-801.37	636.05	190.59	-851.58	586.8	169.17	-840.71	716.07	171.28	-800.59	520	181.31	-762	313.6	179.4	-674.22	296.3	184.75	-728.95	249.91	199.19	-710.86	355.5	171.89	-630.89	148.35	207.44	-610.45	179.87	293.95	-647.61	67.226	263.51	-625.16	57.731	296.49	-633.03	48.097	234.56	-475.98	146.64	182.26	-469.72	176.96	299.07	-424.6	221.5	243.65	-1031.4	1525	336.28	-1164.9	1255.9	327.43
2	0.0041667	-890	1214.1	340.97	-980.44	1475.9	493.97	-976.84	1492.1	162.72	-980.52	1779.7	320.99	-983.06	967.03	478.71	-929.95	966.38	232.13	-1161.1	997.08	349.36	-1142.3	988.09	260.3	-1094.3	904.86	518.37	-990.8	889.95	136.87	-1070.9	1059.4	496.45	-1016.3	1041.7	163.92	-1169.1	962.48	317.77	-1110.5	674.81	508.59	-1077.8	586.89	464.51	-1147.9	595.97	481.73	-1042.5	666.2	494.81	-1194	511.22	459.93	-1170.5	494.99	325.95	-1368.8	325.76	426.01	-1341.1	239.68	426.49	-1403.8	260.44	404.68	-1311.7	307.59	446.81	-1408.8	155.45	399.85	-1363.9	175.57	315.55	-1480.9	123.86	333.57	-1474.9	89.504	305.48	-1482.9	94.063	369.71	-1330	37.168	434.88	-1284.3	41.677	316.47	-1226.1	45.456	366.79	-893.47	666.14	146.69	-795.47	635.28	190.98	-845.67	586.07	169.48	-834.7	715.32	171.55	-794.86	519.06	181.63	-758.55	312.34	179.36	-671.07	293.96	185.18	-726.41	248.22	199.01	-706.87	353.65	172.29	-629.77	145.63	207.6	-609.44	176.57	294.29	-647.68	64.808	263.3	-625.36	54.847	296.35	-633.1	45.515	234.38	-474.95	142.42	182.99	-468.8	172.22	299.9	-423.1	216.51	244.84	-1025.9	1524.2	335.42	-1159.1	1255	326.96
3	0.0083333	-884.26	1213.1	340.65	-974.7	1475.2	493.16	-971.07	1491	161.9	-975.1	1778.7	319.55	-977.67	966.17	478.69	-923.93	965.52	232.25	-1155.3	996.32	348.84	-1136.3	987.34	259.81	-1089.2	904.18	518.05	-984.49	889.09	136.87	-1065.5	1058.6	496.12	-1010.1	1040.7	163.71	-1163.4	961.62	317.26	-1106.2	674.05	508.18	-1073.4	586.26	464.94	-1143.6	595.35	481.7	-1038	665.48	495.16	-1189.9	510.87	460.3	-1166.3	494.19	326.48	-1366.3	326.77	426.23	-1338.9	240.36	426.65	-1401.5	261.56	404.76	-1308.9	308.1	447.02	-1407.5	156.74	400.02	-1362.3	176.46	315.79	-1479.5	125.91	333.77	-1474	91.58	305.59	-1483.3	96.411	370	-1329.8	37.414	434.9	-1284	41.67	316.51	-1226	45.238	366.84	-887.38	665.37	146.92	-789.35	634.44	191.38	-839.58	585.28	169.8	-828.45	714.51	171.8	-788.95	518.06	181.95	-754.94	311.05	179.33	-667.79	291.56	185.64	-723.75	246.49	198.86	-702.73	351.75	172.71	-628.52	142.86	207.77	-608.29	173.23	294.62	-647.68	62.445	263.1	-625.5	51.993	296.23	-633.1	42.96	234.22	-473.82	138.07	183.7	-467.75	167.34	300.7	-421.45	211.36	246.01	-1020.2	1523.3	334.52	-1153	1254	326.46
4	0.0125	-878.3	1212.2	340.33	-968.75	1474.6	492.33	-965.11	1489.8	161.04	-969.49	1777.8	318.05	-972.08	965.29	478.67	-917.69	964.63	232.37	-1149.3	995.55	348.29	-1130.1	986.57	259.3	-1083.8	903.49	517.71	-977.93	888.22	136.85	-1059.9	1057.8	495.77	-1003.7	1039.7	163.5	-1157.5	960.75	316.73	-1101.6	673.28	507.8	-1068.8	585.6	465.4	-1139.1	594.72	481.69	-1033.3	664.74	495.52	-1185.7	510.5	460.69	-1161.9	493.35	327.04	-1363.6	327.83	426.46	-1336.6	241.08	426.82	-1398.9	262.72	404.84	-1305.8	308.64	447.24	-1406	158.1	400.21	-1360.6	177.4	316.05	-1478.1	128.06	333.98	-1473	93.777	305.7	-1483.5	98.825	370.28	-1329.6	37.669	434.92	-1283.8	41.663	316.55	-1225.9	45.024	366.88	-881.12	664.57	147.16	-783.08	633.53	191.75	-833.35	584.45	170.13	-822.02	713.65	172.05	-782.91	517.02	182.28	-751.2	309.73	179.32	-664.39	289.13	186.1	-720.96	244.72	198.73	-698.49	349.8	173.14	-627.15	140.07	207.95	-606.98	169.86	294.97	-647.6	60.184	262.92	-625.57	49.219	296.13	-633.02	40.475	234.09	-472.6	133.62	184.39	-466.56	162.38	301.47	-419.66	206.08	247.12	-1014.3	1522.4	333.59	-1146.6	1253	325.93
5	0.016667	-872.15	1211.2	340	-962.63	1474	491.46	-958.98	1488.5	160.15	-963.73	1776.8	316.51	-966.3	964.42	478.65	-911.27	963.74	232.49	-1143.1	994.77	347.71	-1123.7	985.8	258.76	-1078.3	902.78	517.36	-971.18	887.33	136.82	-1054.1	1057	495.41	-997.14	1038.7	163.27	-1151.4	959.87	316.16	-1096.8	672.53	507.47	-1064.1	584.92	465.88	-1134.4	594.09	481.7	-1028.4	664	495.9	-1181.2	510.12	461.08	-1157.3	492.49	327.63	-1360.8	328.95	426.7	-1334.2	241.84	427	-1396.3	263.92	404.92	-1302.7	309.21	447.48	-1404.5	159.53	400.4	-1358.8	178.39	316.33	-1476.6	130.33	334.19	-1472	96.095	305.81	-1483.5	101.29	370.53	-1329.3	37.935	434.94	-1283.5	41.657	316.59	-1225.9	44.817	366.92	-874.75	663.74	147.42	-776.68	632.57	192.11	-827.03	583.58	170.48	-815.45	712.74	172.27	-776.78	515.96	182.6	-747.36	308.39	179.33	-660.89	286.69	186.57	-718.06	242.94	198.65	-694.15	347.83	173.59	-625.65	137.29	208.14	-605.51	166.52	295.31	-647.42	58.07	262.76	-625.55	46.573	296.04	-632.84	38.104	233.99	-471.28	129.1	185.04	-465.22	157.37	302.19	-417.72	200.72	248.17	-1008.2	1521.5	332.62	-1140.1	1252	325.37
6	0.020833	-865.83	1210.3	339.67	-956.37	1473.3	490.56	-952.71	1487.3	159.23	-957.82	1775.9	314.93	-960.38	963.54	478.63	-904.69	962.84	232.62	-1136.8	993.99	347.13	-1117.2	985.04	258.2	-1072.6	902.07	517	-964.27	886.45	136.78	-1048.2	1056.3	495.04	-990.37	1037.7	163.04	-1145.1	959	315.58	-1091.9	671.8	507.19	-1059.1	584.23	466.37	-1129.6	593.45	481.74	-1023.3	663.25	496.3	-1176.6	509.72	461.48	-1152.5	491.59	328.25	-1357.9	330.13	426.96	-1331.7	242.64	427.2	-1393.4	265.15	405	-1299.4	309.79	447.73	-1402.8	161.02	400.61	-1356.8	179.42	316.62	-1475	132.71	334.42	-1470.8	98.534	305.93	-1483.3	103.81	370.76	-1329.1	38.213	434.96	-1283.3	41.653	316.64	-1225.8	44.619	366.96	-868.3	662.9	147.68	-770.22	631.54	192.43	-820.68	582.66	170.82	-808.77	711.78	172.46	-770.6	514.87	182.91	-743.42	307.06	179.37	-657.31	284.27	187.05	-715.06	241.18	198.61	-689.74	345.87	174.04	-624.02	134.57	208.33	-603.86	163.24	295.65	-647.14	56.144	262.61	-625.44	44.098	295.98	-632.56	35.886	233.92	-469.86	124.56	185.65	-463.71	152.35	302.85	-415.63	195.32	249.13	-1002	1520.6	331.61	-1133.5	1251.1	324.79
7	0.025	-859.36	1209.4	339.33	-949.99	1472.7	489.64	-946.33	1486.1	158.28	-951.82	1774.9	313.31	-954.32	962.68	478.6	-897.99	961.96	232.74	-1130.3	993.21	346.53	-1110.5	984.3	257.63	-1066.8	901.35	516.62	-957.22	885.59	136.72	-1042.1	1055.5	494.66	-983.44	1036.8	162.8	-1138.7	958.16	314.99	-1086.8	671.08	506.98	-1054	583.53	466.89	-1124.6	592.82	481.81	-1018.1	662.51	496.72	-1171.8	509.3	461.89	-1147.5	490.67	328.89	-1354.9	331.34	427.23	-1329.1	243.48	427.41	-1390.5	266.42	405.08	-1296	310.4	448.01	-1401.1	162.57	400.83	-1354.8	180.5	316.94	-1473.3	135.21	334.64	-1469.6	101.09	306.06	-1482.8	106.38	370.96	-1328.8	38.505	434.98	-1283	41.652	316.68	-1225.7	44.431	366.98	-861.8	662.04	147.95	-763.72	630.48	192.71	-814.32	581.72	171.16	-802.03	710.8	172.62	-764.41	513.77	183.21	-739.4	305.74	179.44	-653.64	281.91	187.52	-711.95	239.44	198.62	-685.29	343.93	174.5	-622.24	131.93	208.53	-602.03	160.06	295.98	-646.74	54.444	262.49	-625.22	41.83	295.94	-632.16	33.857	233.9	-468.34	120.02	186.2	-462.05	147.36	303.43	-413.38	189.89	249.98	-995.65	1519.8	330.59	-1126.7	1250.1	324.19
8	0.029167	-852.78	1208.6	338.99	-943.53	1472.2	488.7	-939.87	1484.9	157.31	-945.72	1774	311.66	-948.15	961.83	478.57	-891.21	961.09	232.86	-1123.7	992.45	345.93	-1103.8	983.58	257.05	-1060.9	900.63	516.24	-950.08	884.75	136.64	-1035.9	1054.7	494.27	-976.4	1035.9	162.56	-1132.1	957.33	314.38	-1081.5	670.39	506.83	-1048.8	582.81	467.43	-1119.4	592.18	481.9	-1012.8	661.78	497.14	-1166.9	508.86	462.3	-1142.4	489.72	329.56	-1351.7	332.6	427.51	-1326.3	244.36	427.63	-1387.3	267.71	405.17	-1292.5	311.03	448.29	-1399.2	164.19	401.06	-1352.6	181.61	317.27	-1471.5	137.81	334.87	-1468.2	103.78	306.18	-1482	109	371.13	-1328.5	38.813	435	-1282.7	41.657	316.73	-1225.6	44.252	367	-855.29	661.19	148.23	-757.21	629.38	192.95	-807.99	580.77	171.5	-795.25	709.79	172.74	-758.23	512.68	183.48	-735.3	304.46	179.54	-649.9	279.61	187.99	-708.74	237.75	198.68	-680.8	342.03	174.96	-620.31	129.39	208.74	-600	157	296.31	-646.21	52.999	262.4	-624.9	39.798	295.93	-631.64	32.046	233.91	-466.73	115.51	186.69	-460.22	142.43	303.93	-410.98	184.48	250.72	-989.24	1518.9	329.53	-1119.9	1249.1	323.57
9	0.033333	-846.09	1207.7	338.65	-936.99	1471.6	487.74	-933.33	1483.7	156.31	-939.57	1773.2	309.99	-941.88	961	478.53	-884.35	960.26	232.97	-1117	991.71	345.34	-1096.9	982.9	256.46	-1054.9	899.91	515.85	-942.88	883.95	136.54	-1029.6	1054	493.89	-969.27	1035	162.32	-1125.5	956.54	313.77	-1076.1	669.72	506.74	-1043.4	582.1	467.98	-1114.1	591.55	482.03	-1007.3	661.06	497.58	-1161.7	508.4	462.73	-1137	488.74	330.25	-1348.4	333.89	427.8	-1323.5	245.28	427.87	-1384.1	269.04	405.25	-1288.9	311.67	448.6	-1397.2	165.86	401.31	-1350.4	182.78	317.63	-1469.5	140.52	335.11	-1466.7	106.59	306.3	-1481	111.69	371.27	-1328.3	39.144	435.01	-1282.4	41.669	316.77	-1225.5	44.082	367	-848.8	660.35	148.49	-750.72	628.26	193.13	-801.71	579.81	171.82	-788.46	708.77	172.81	-752.1	511.61	183.73	-731.14	303.24	179.67	-646.09	277.41	188.44	-705.42	236.14	198.8	-676.28	340.21	175.41	-618.23	126.98	208.94	-597.77	154.09	296.62	-645.55	51.829	262.33	-624.45	38.025	295.94	-631.01	30.475	233.97	-465.03	111.05	187.12	-458.22	137.57	304.35	-408.41	179.09	251.34	-982.75	1518.1	328.46	-1113	1248.2	322.93
